Coordinates
version=1
nRows=9
nColumns=36
inDegrees=yes

Units are S.I. units (second, meters, Newtons, ...)
If the header above contains a line with 'inDegrees', this indicates whether rotational values are in degrees (yes) or radians (no).

endheader
time	pelvis_tilt	pelvis_list	pelvis_rotation	pelvis_tx	pelvis_ty	pelvis_tz	hip_flexion_r	hip_adduction_r	hip_rotation_r	knee_angle_r	knee_angle_r_beta	ankle_angle_r	subtalar_angle_r	mtp_angle_r	hip_flexion_l	hip_adduction_l	hip_rotation_l	knee_angle_l	knee_angle_l_beta	ankle_angle_l	subtalar_angle_l	mtp_angle_l	lumbar_extension	lumbar_bending	lumbar_rotation	arm_flex_r	arm_add_r	arm_rot_r	elbow_flex_r	pro_sup_r	arm_flex_l	arm_add_l	arm_rot_l	elbow_flex_l	pro_sup_l
      6.44000000	    -25.51226965	      1.15136307	      2.49770395	     -0.33836955	      0.54459505	     -0.58267080	    100.49497174	    -14.53910585	      4.41495823	    108.80434539	      1.89899407	     39.45994886	      5.09031186	     -7.49999987	     98.82441661	    -16.00167042	     -2.26956873	    106.55569842	      1.85974777	     36.27634047	     11.19064170	     -7.49999987	    -35.48309580	     -0.51426137	     -4.07722449	     66.66769823	     -9.82004514	     -8.92888154	    130.27373021	     95.31096831	     69.09940200	    -13.04391668	     -6.30077014	    123.40318081	     91.19185817
      6.45000000	    -25.52357741	      1.15837385	      2.43972275	     -0.33826339	      0.54430602	     -0.58254424	    100.54030476	    -14.48429867	      4.41639459	    108.84436578	      1.89969256	     39.41009438	      5.00305546	     -7.49999987	     98.86286967	    -16.10339835	     -2.28020104	    106.61789812	      1.86083336	     36.23602601	     11.10388479	     -7.49999987	    -35.45605467	     -0.52976913	     -4.06244389	     66.62543836	     -9.74387131	     -9.10188421	    129.94484490	     99.75139016	     68.98402872	    -13.08883130	     -6.62968478	    123.05918653	     94.90653041
      6.46000000	    -25.65540307	      1.18915215	      2.41274373	     -0.33821774	      0.54396185	     -0.58250812	    100.72705401	    -14.45115091	      4.43749192	    108.86640425	      1.90007720	     39.16267262	      4.60355153	     -7.49999987	     99.01471978	    -16.16320629	     -2.37398529	    106.63997485	      1.86121868	     36.09949266	     10.55399230	     -7.49999987	    -35.22880717	     -0.54705349	     -4.08086517	     66.45919833	     -9.72361463	     -8.91720881	    130.20973848	     95.66963646	     68.70942405	    -13.13466787	     -6.67865212	    123.56253301	     91.58672181
      6.47000000	    -25.48940021	      1.21252557	      2.40258138	     -0.33805368	      0.54449494	     -0.58255666	    100.50280122	    -14.49281144	      4.44212817	    108.84138490	      1.89964053	     39.40775466	      5.03186597	     -7.49999987	     98.75673030	    -16.19903566	     -2.39394122	    106.61245750	      1.86073841	     36.27847027	     11.10930751	     -7.49999987	    -35.40518671	     -0.51587360	     -4.14990919	     66.53590993	     -9.68417591	     -8.96524567	    129.89423334	     99.48727157	     68.63173823	    -13.24395091	     -7.00996125	    123.18375545	     95.60610884
      6.48000000	    -25.42922765	      1.18865074	      2.37837074	     -0.33788252	      0.54506267	     -0.58259063	    100.35042816	    -14.47607280	      4.39294699	    108.76647251	      1.89833306	     39.43096234	      5.04624423	     -7.49999987	     98.63413174	    -16.24670439	     -2.40655722	    106.56842391	      1.85996988	     36.31122703	     11.15881997	     -7.49999987	    -35.43847819	     -0.46018536	     -4.14752922	     66.51398189	     -9.71936905	     -8.79863217	    130.12305036	     96.50541860	     68.45014269	    -13.30718262	     -7.08425799	    123.56578470	     93.00278065
      6.49000000	    -25.35888171	      1.14116490	      2.30550095	     -0.33772026	      0.54590321	     -0.58248866	    100.13344484	    -14.37357382	      4.29922421	    108.62665853	      1.89589285	     39.37171274	      4.94287754	     -7.49999987	     98.47847199	    -16.35180318	     -2.39947954	    106.48099335	      1.85844392	     36.33355159	     11.18896368	     -7.49999987	    -35.47582922	     -0.43310784	     -4.04868846	     66.48628705	     -9.76419812	     -8.92336013	    129.91527285	     99.42983042	     68.30094182	    -13.25547834	     -7.35030194	    123.26827948	     95.87733561
      6.50000000	    -25.34136482	      1.11936716	      2.26071645	     -0.33759244	      0.54676966	     -0.58243617	     99.97997090	    -14.31203055	      4.23846605	    108.47542162	      1.89325326	     39.41855341	      5.01117526	     -7.49999987	     98.35694732	    -16.39599276	     -2.39754789	    106.37249668	      1.85655030	     36.37723249	     11.34473160	     -7.49999987	    -35.42914846	     -0.43391216	     -3.95100598	     66.40492861	     -9.88373899	     -8.83548260	    130.34427604	     94.90381858	     68.07450729	    -13.19132763	     -7.20545620	    123.75445856	     91.63564211
      6.51000000	    -25.42171239	      1.10549769	      2.23727746	     -0.33754088	      0.54761233	     -0.58242524	     99.93033793	    -14.25970390	      4.17925542	    108.28917460	      1.89000264	     39.24552225	      4.78452506	     -7.49999987	     98.33165456	    -16.38537661	     -2.42209599	    106.21527835	      1.85380632	     36.23652366	     11.09885302	     -7.49999987	    -35.21827820	     -0.41481276	     -3.89096540	     66.29747504	     -9.97619426	     -9.03117917	    129.95974797	     99.64828191	     67.77957843	    -13.18108898	     -7.39909424	    123.26919004	     95.16782644
      6.52000000	    -25.50040704	      1.07412901	      2.21655056	     -0.33755739	      0.54855738	     -0.58237926	     99.86885811	    -14.15011651	      4.14546736	    108.10621201	      1.88680934	     39.00062106	      4.29596999	     -7.49999987	     98.31050501	    -16.30988197	     -2.39898221	    106.02119470	      1.85041892	     35.88917680	     10.36796099	     -7.49999987	    -35.05097174	     -0.36352010	     -3.84894416	     66.20192863	    -10.01107925	     -8.78110264	    130.54274043	     94.02757678	     67.55230629	    -13.29692633	     -7.25570190	    123.91822632	     90.13597275
